<?xml version="1.0" encoding="utf-8"?>
<!-- Generator: Adobe Illustrator 26.5.0, SVG Export Plug-In . SVG Version: 6.00 Build 0)  -->
<svg version="1.1" id="Layer_1" xmlns="http://www.w3.org/2000/svg" xmlns:xlink="http://www.w3.org/1999/xlink" x="0px" y="0px"
	 viewBox="0 0 450 300" style="enable-background:new 0 0 450 300;" xml:space="preserve">
<style type="text/css">
	.st0{fill:#EFEFEF;}
	.st1{fill:#C9C9C9;}
</style>
<rect class="st0" width="450" height="300"/>
<path id="Icon_metro-image" class="st1" d="M252.8,126.1L252.8,126.1v47.8l0,0h-55.8l0,0v-47.8l0,0H252.8z M252.8,122.2h-55.8
	c-2.4,0-3.9,1.7-3.9,3.9v47.8c0,2.4,1.7,3.9,3.9,3.9h55.8c2.4,0,3.9-1.7,3.9-3.9v-47.8C256.9,123.7,255.3,122.2,252.8,122.2
	L252.8,122.2z M245,136.2c0,3.2-2.8,6-6,6c-3.2,0-6-2.8-6-6c0-3.2,2.8-6,6-6l0,0C242.2,130.2,245,132.8,245,136.2L245,136.2
	L245,136.2z M248.9,170h-47.8v-8l14-23.9l15.9,20h3.9l14-11.9V170z"/>
</svg>
