<?xml version="1.0" encoding="UTF-8"?><svg id="Layer_2" xmlns="http://www.w3.org/2000/svg" viewBox="0 0 85.34 100"><defs><style>.cls-1{fill:#fff;}</style></defs><g id="Layer_1-2"><g><g><path class="cls-1" d="M25,50.2h0c.11,13.69,11.28,24.8,25,24.8s25-11.21,25-25-11.21-25-25-25c-4.55,0-8.82,1.23-12.5,3.36V1.58c-4.43,1.15-8.63,2.89-12.5,5.13V50.2Zm25-12.7c6.9,0,12.5,5.6,12.5,12.5s-5.6,12.5-12.5,12.5-12.5-5.6-12.5-12.5,5.6-12.5,12.5-12.5Z"/><path class="cls-1" d="M12.5,49.8h0v.2c0-.07,0-.13,0-.2Z"/></g><g><path class="cls-1" d="M85.34,14.66C76.29,5.61,63.79,0,50,0V12.5c10.34,0,19.71,4.21,26.5,11l8.83-8.83Z"/><path class="cls-1" d="M76.5,76.5c-6.79,6.79-16.17,11-26.5,11-20.68,0-37.5-16.82-37.5-37.5V16.97C4.72,25.78,0,37.35,0,50c0,27.57,22.43,50,50,50,13.79,0,26.28-5.61,35.33-14.67l-8.83-8.83Z"/></g></g></g></svg>